<?xml version="1.0"  encoding="UTF-8" standalone="no"?>
<svg version="1.1" xmlns="http://www.w3.org/2000/svg" xmlns:xlink="http://www.w3.org/1999/xlink" width="600.0000" height="400.0000">
<g transform="translate(-50, -50)">
<text  clip-path="url(#clip-282475249)" font-family="Helvetica" style ="white-space:pre;"   x="462.7200" y="324" font-size="10" ><![CDATA[Fill in QuestionnaireResponse Resource]]></text>
<text  clip-path="url(#clip-282475249)" font-family="Helvetica" style ="white-space:pre;"   x="462.1884" y="336" font-size="10" ><![CDATA[and construct Bundle]]></text>
<text  clip-path="url(#clip-282475249)" font-family="Helvetica" style ="white-space:pre;"   x="345.5031" y="102.5214" font-size="10" ><![CDATA[Questionnaire]]></text>
<text  clip-path="url(#clip-282475249)" font-family="Helvetica" style ="white-space:pre;"   x="354.5679" y="114.5030" font-size="10" ><![CDATA[Manager]]></text>
<path d="M 439.0682,399.4582 L 439.0682,399.4582 L 439.1724,393.8320 M 439.2766,389.6645 L 439.2766,389.6645 L 439.3808,384.1425 M 439.4850,379.9750 L 439.4850,379.9750 L 439.4850,374.4530 M 439.5892,370.2855 L 439.5892,370.2855 L 439.6934,364.6593 M 439.7976,360.4918 L 439.7976,360.4918 L 439.7976,354.9698 M 439.9018,350.8023 L 439.9018,350.8023 L 440.0059,345.2803 M 440.1101,341.1127 L 440.1101,341.1127 L 440.1101,335.4866 M 440.2143,331.3190 L 440.2143,331.3190 L 440.3185,325.7970 M 440.4227,321.6295 L 440.4227,321.6295 L 440.5269,316.1075 M 440.5269,311.9400 L 440.5269,311.9400 L 440.6311,306.3138 M 440.7353,302.1463 L 440.7353,302.1463 L 440.8395,296.6243 M 440.8395,292.4568 L 440.8395,292.4568 L 440.9437,286.9348 M 441.0479,282.7672 L 441.0479,282.7672 L 441.1521,277.1411 M 441.1521,272.9735 L 441.1521,272.9735 L 441.2563,267.4516 M 441.3605,263.2840 L 441.3605,263.2840 L 441.4646,257.7620 M 441.4646,253.5945 L 441.4646,253.5945 L 441.5688,247.9683 M 441.6730,243.8008 L 441.6730,243.8008 L 441.7772,238.2788 M 441.7772,234.1113 L 441.7772,234.1113 L 441.8814,228.5893 M 441.9856,224.4218 L 441.9856,224.4218 L 442.0898,218.7956 M 442.0898,214.6280 L 442.0898,214.6280 L 442.1940,209.1061 M 442.2982,204.9385 L 442.2982,204.9385 L 442.4024,199.4165 M 442.4024,195.2490 L 442.4024,195.2490 L 442.5066,189.6228 M 442.6108,185.4553 L 442.6108,185.4553 L 442.7150,179.9333 M 442.8191,175.7658 L 442.8191,175.7658 L 442.8191,170.2438 M 442.9233,166.0763 L 442.9233,166.0763 L 443.0275,160.5543 M 443.1317,156.3867 L 443.1317,156.3867 L 443.1317,150.7606 M 443.2359,146.5930 L 443.2359,146.5930 L 443.2359,146.0721 " stroke="#000000" stroke-width="1.3545"  stroke-linecap="butt"  stroke-linejoin="round" fill="none" />
<path d="M 93.8777,399.4582 L 93.8777,399.4582 L 93.8777,393.8320 M 93.8777,389.6645 L 93.8777,389.6645 L 93.8777,384.1425 M 93.8777,379.9750 L 93.8777,379.9750 L 93.8777,374.4530 M 93.8777,370.2855 L 93.8777,370.2855 L 93.8777,364.6593 M 93.8777,360.4918 L 93.8777,360.4918 L 93.8777,354.9698 M 93.8777,350.8023 L 93.8777,350.8023 L 93.8777,345.2803 M 93.8777,341.1127 L 93.8777,341.1127 L 93.8777,335.4866 M 93.8777,331.3190 L 93.8777,331.3190 L 93.8777,325.7970 M 93.8777,321.6295 L 93.8777,321.6295 L 93.8777,316.1075 M 93.8777,311.9400 L 93.8777,311.9400 L 93.8777,306.3138 M 93.8777,302.1463 L 93.8777,302.1463 L 93.8777,296.6243 M 93.8777,292.4568 L 93.8777,292.4568 L 93.8777,286.9348 M 93.8777,282.7672 L 93.8777,282.7672 L 93.8777,277.1411 M 93.8777,272.9735 L 93.8777,272.9735 L 93.8777,267.4516 M 93.8777,263.2840 L 93.8777,263.2840 L 93.8777,257.7620 M 93.8777,253.5945 L 93.8777,253.5945 L 93.8777,247.9683 M 93.8777,243.8008 L 93.8777,243.8008 L 93.8777,238.2788 M 93.8777,234.1113 L 93.8777,234.1113 L 93.8777,228.5893 M 93.8777,224.4218 L 93.8777,224.4218 L 93.8777,218.7956 M 93.8777,214.6280 L 93.8777,214.6280 L 93.8777,209.1061 M 93.8777,204.9385 L 93.8777,204.9385 L 93.8777,199.4165 M 93.8777,195.2490 L 93.8777,195.2490 L 93.8777,189.6228 M 93.8777,185.4553 L 93.8777,185.4553 L 93.8777,179.9333 M 93.8777,175.7658 L 93.8777,175.7658 L 93.8777,170.2438 M 93.8777,166.0763 L 93.8777,166.0763 L 93.8777,160.4501 M 93.8777,156.2826 L 93.8777,156.2826 L 93.8777,150.7606 " stroke="#000000" stroke-width="1.3545"  stroke-linecap="butt"  stroke-linejoin="round" fill="none" />
<text  clip-path="url(#clip-282475249)" font-family="Helvetica" style ="white-space:pre;"   x="69.3924" y="102.8339" font-size="10" ><![CDATA[Questionnaire]]></text>
<text  clip-path="url(#clip-282475249)" font-family="Helvetica" style ="white-space:pre;"   x="85.5422" y="114.8156" font-size="10" ><![CDATA[Filler]]></text>
<path d="M 101.1712,205.4595 L 101.1712,205.4595 L 364.9872,205.4595 " stroke="#000000" stroke-width="1.3545"  stroke-linecap="butt"  stroke-linejoin="round" fill="none" />
<path d="M 361.2362,202.6464 L 361.2362,202.6464 L 366.8626,205.4595 L 361.2362,208.1684 L 361.2362,202.6464 Z "  stroke="none" />
<path d="M 86.6884,196.7076 L 86.6884,196.7076 L 101.1712,196.7076 L 101.1712,296.2075 L 86.6884,296.2075 L 86.6884,196.7076 Z "  fill="#FFFFFF" stroke="none" />
<path d="M 86.6884,196.7076 L 86.6884,196.7076 L 101.1712,196.7076 L 101.1712,296.2075 L 86.6884,296.2075 L 86.6884,196.7076 Z " stroke="#000000" stroke-width="1.3545"  stroke-linecap="butt"  stroke-linejoin="miter"  stroke-miterlimit="8.0000" fill="none" />
<path d="M 102.2131,263.0756 L 102.2131,263.0756 L 112.9449,263.0756 " stroke="#000000" stroke-width="1.3545"  stroke-linecap="butt"  stroke-linejoin="round" fill="none" />
<path d="M 105.8598,265.8887 L 105.8598,265.8887 L 100.3376,263.0756 L 105.8598,260.3667 L 105.8598,265.8887 Z "  stroke="none" />
<path d="M 112.8407,245.0511 L 112.8407,245.0511 L 112.8407,262.4505 " stroke="#000000" stroke-width="1.3545"  stroke-linecap="butt"  stroke-linejoin="round" fill="none" />
<path d="M 101.1712,244.3217 L 101.1712,244.3217 L 112.8407,244.3217 " stroke="#000000" stroke-width="1.3545"  stroke-linecap="butt"  stroke-linejoin="round" fill="none" />
<text  clip-path="url(#clip-282475249)" font-family="Helvetica" style ="white-space:pre;"   x="117.3210" y="252.1359" font-size="10" ><![CDATA[Fill in QuestionnaireResponse]]></text>
<text  clip-path="url(#clip-282475249)" font-family="Helvetica" style ="white-space:pre;"   x="117.3210" y="264.1175" font-size="10" ><![CDATA[Resource and construct Bundle]]></text>
<path d="M 101.1712,284.3301 L 101.1712,284.3301 L 501.0629,284.3301 " stroke="#000000" stroke-width="1.3545"  stroke-linecap="butt"  stroke-linejoin="round" fill="none" />
<path d="M 497.4161,287.1432 L 497.4161,287.1432 L 502.9384,284.3301 L 497.4161,281.5170 L 497.4161,287.1432 Z "  stroke="none" />
<text  clip-path="url(#clip-282475249)" font-family="Helvetica" style ="white-space:pre;"   x="285.9049" y="253.8029" font-size="10" ><![CDATA[Submit Bundle]]></text>
<text  clip-path="url(#clip-282475249)" font-family="Helvetica" style ="white-space:pre;"   x="296.7409" y="265.8887" font-size="10" ><![CDATA[(Request)]]></text>
<text  clip-path="url(#clip-282475249)" font-family="Helvetica" style ="white-space:pre;"   x="292.8858" y="277.8704" font-size="10" ><![CDATA[[CH:ORF-4]]]></text>
<path d="M 433.7544,296.2075 L 433.7544,296.2075 L 447.9246,296.2075 L 447.9246,364.1384 L 433.7544,364.1384 L 433.7544,296.2075 Z "  fill="#FFFFFF" stroke="none" />
<path d="M 433.7544,296.2075 L 433.7544,296.2075 L 447.9246,296.2075 L 447.9246,364.1384 L 433.7544,364.1384 L 433.7544,296.2075 Z " stroke="#000000" stroke-width="1.3545"  stroke-linecap="butt"  stroke-linejoin="miter"  stroke-miterlimit="8.0000" fill="none" />
<text  clip-path="url(#clip-282475249)" font-family="Helvetica" style ="white-space:pre;"   x="428.0238" y="73.9737" font-size="10" ><![CDATA[Questionnaire]]></text>
<text  clip-path="url(#clip-282475249)" font-family="Helvetica" style ="white-space:pre;"   x="435.4215" y="85.9554" font-size="10" ><![CDATA[Processor]]></text>
<path d="M 509.1899,399.4582 L 509.1899,399.4582 L 509.1899,393.8320 M 509.1899,389.6645 L 509.1899,389.6645 L 509.1899,384.1425 M 509.1899,379.9750 L 509.1899,379.9750 L 509.1899,374.4530 M 509.1899,370.2855 L 509.1899,370.2855 L 509.1899,364.6593 M 509.1899,360.4918 L 509.1899,360.4918 L 509.1899,354.9698 M 509.1899,350.8023 L 509.1899,350.8023 L 509.1899,345.2803 M 509.1899,341.1127 L 509.1899,341.1127 L 509.1899,335.4866 M 509.1899,331.3190 L 509.1899,331.3190 L 509.1899,325.7970 M 509.1899,321.6295 L 509.1899,321.6295 L 509.1899,316.1075 M 509.1899,311.9400 L 509.1899,311.9400 L 509.1899,306.3138 M 509.1899,302.1463 L 509.1899,302.1463 L 509.1899,296.6243 M 509.1899,292.4568 L 509.1899,292.4568 L 509.1899,286.9348 M 509.1899,282.7672 L 509.1899,282.7672 L 509.1899,277.1411 M 509.1899,272.9735 L 509.1899,272.9735 L 509.1899,267.4516 M 509.1899,263.2840 L 509.1899,263.2840 L 509.1899,257.7620 M 509.1899,253.5945 L 509.1899,253.5945 L 509.1899,247.9683 M 509.1899,243.8008 L 509.1899,243.8008 L 509.1899,238.2788 M 509.1899,234.1113 L 509.1899,234.1113 L 509.1899,228.5893 M 509.1899,224.4218 L 509.1899,224.4218 L 509.1899,218.7956 M 509.1899,214.6280 L 509.1899,214.6280 L 509.1899,209.1061 M 509.1899,204.9385 L 509.1899,204.9385 L 509.1899,199.4165 M 509.1899,195.2490 L 509.1899,195.2490 L 509.1899,189.6228 M 509.1899,185.4553 L 509.1899,185.4553 L 509.1899,179.9333 M 509.1899,175.7658 L 509.1899,175.7658 L 509.1899,170.2438 M 509.1899,166.0763 L 509.1899,166.0763 L 509.1899,160.4501 M 509.1899,156.2826 L 509.1899,156.2826 L 509.1899,150.7606 " stroke="#000000" stroke-width="1.3545"  stroke-linecap="butt"  stroke-linejoin="round" fill="none" />
<text  clip-path="url(#clip-282475249)" font-family="Helvetica" style ="white-space:pre;"   x="480.5369" y="101.8962" font-size="10" ><![CDATA[Questionnaire]]></text>
<text  clip-path="url(#clip-282475249)" font-family="Helvetica" style ="white-space:pre;"   x="489.6017" y="113.9821" font-size="10" ><![CDATA[Receiver]]></text>s
<path d="M 163.4784,399.4582 L 163.4784,399.4582 L 163.5826,393.8320 M 163.6868,389.6645 L 163.6868,389.6645 L 163.7910,384.1425 M 163.7910,379.9750 L 163.7910,379.9750 L 163.8952,374.4530 M 163.9994,370.2855 L 163.9994,370.2855 L 164.1036,364.6593 M 164.1036,360.4918 L 164.1036,360.4918 L 164.2078,354.9698 M 164.3120,350.8023 L 164.3120,350.8023 L 164.4161,345.2803 M 164.4161,341.1127 L 164.4161,341.1127 L 164.5203,335.4866 M 164.6245,331.3190 L 164.6245,331.3190 L 164.7287,325.7970 M 164.7287,321.6295 L 164.7287,321.6295 L 164.8329,316.1075 M 164.9371,311.9400 L 164.9371,311.9400 L 165.0413,306.3138 M 165.1455,302.1463 L 165.1455,302.1463 L 165.1455,296.6243 M 165.2497,292.4568 L 165.2497,292.4568 L 165.3539,286.9348 M 165.4581,282.7672 L 165.4581,282.7672 L 165.4581,277.1411 M 165.5623,272.9735 L 165.5623,272.9735 L 165.6665,267.4516 M 165.7707,263.2840 L 165.7707,263.2840 L 165.8748,257.7620 M 165.8748,253.5945 L 165.8748,253.5945 L 165.9790,247.9683 M 166.0832,243.8008 L 166.0832,243.8008 L 166.1874,238.2788 M 166.1874,234.1113 L 166.1874,234.1113 L 166.2916,228.5893 M 166.3958,224.4218 L 166.3958,224.4218 L 166.5000,218.7956 M 166.5000,214.6280 L 166.5000,214.6280 L 166.6042,209.1061 M 166.7084,204.9385 L 166.7084,204.9385 L 166.8126,199.4165 M 166.8126,195.2490 L 166.8126,195.2490 L 166.9168,189.6228 M 167.0210,185.5595 L 167.0210,185.5595 L 167.1252,179.9333 M 167.1252,175.7658 L 167.1252,175.7658 L 167.2293,170.2438 M 167.3335,166.0763 L 167.3335,166.0763 L 167.4377,160.5543 M 167.5419,156.3867 L 167.5419,156.3867 L 167.5419,150.7606 " stroke="#000000" stroke-width="1.3545"  stroke-linecap="butt"  stroke-linejoin="round" fill="none" />
<text  clip-path="url(#clip-282475249)" font-family="Helvetica" style ="white-space:pre;"   x="140.3476" y="102.4172" font-size="10" ><![CDATA[Questionnaire]]></text>
<text  clip-path="url(#clip-282475249)" font-family="Helvetica" style ="white-space:pre;"   x="149.4124" y="114.5030" font-size="10" ><![CDATA[Receiver]]></text>
<path d="M 156.7059,318.7122 L 156.7059,318.7122 L 170.0426,318.7122 L 170.0426,364.1384 L 156.7059,364.1384 L 156.7059,318.7122 Z "  fill="#FFFFFF" stroke="none" />
<path d="M 156.7059,318.7122 L 156.7059,318.7122 L 170.0426,318.7122 L 170.0426,364.1384 L 156.7059,364.1384 L 156.7059,318.7122 Z " stroke="#000000" stroke-width="1.3545"  stroke-linecap="butt"  stroke-linejoin="miter"  stroke-miterlimit="8.0000" fill="none" />

<path d="M 65.2247,61.1586 L 65.2247,61.1586 L 76.2691,61.1586 M 80.4368,61.1586 L 80.4368,61.1586 L 81.8955,61.1586 M 86.0632,61.1586 L 86.0632,61.1586 L 87.4177,61.1586 M 91.5854,61.1586 L 91.5854,61.1586 L 102.7340,61.1586 M 106.9018,61.1586 L 106.9018,61.1586 L 108.2563,61.1586 M 112.4240,61.1586 L 112.4240,61.1586 L 113.7785,61.1586 M 117.9462,61.1586 L 117.9462,61.1586 L 129.0948,61.1586 M 133.2625,61.1586 L 133.2625,61.1586 L 134.6170,61.1586 M 138.7847,61.1586 L 138.7847,61.1586 L 140.2434,61.1586 M 144.4111,61.1586 L 144.4111,61.1586 L 155.4556,61.1586 M 159.6233,61.1586 L 159.6233,61.1586 L 161.0820,61.1586 M 165.2497,61.1586 L 165.2497,61.1586 L 166.6042,61.1586 M 170.7719,61.1586 L 170.7719,61.1586 L 181.9205,61.1586 M 186.0882,61.1586 L 186.0882,61.1586 L 187.4427,61.1586 M 191.6105,61.1586 L 191.6105,61.1586 L 192.9650,61.1586 M 197.1327,61.1586 L 197.1327,61.1586 L 210,61.1586 L 210,66.6806 M 210,70.8481 L 210,70.8481 L 210,72.2025 M 210,76.3701 L 210,76.3701 L 210,77.7245 M 210,81.8921 L 210,81.8921 L 210,93.0402 M 210,97.2078 L 210,97.2078 L 210,98.5622 M 210,102.7297 L 210,102.7297 L 210,104.1884 M 210,108.3559 L 210,108.3559 L 210,119.3999 M 210,123.5674 L 210,123.5674 L 210,125.0260 M 210,129.1936 L 210,129.1936 L 210,130.0271 L 202.2381,130.0271 M 198.0704,130.0271 L 198.0704,130.0271 L 186.9218,130.0271 M 182.7541,130.0271 L 182.7541,130.0271 L 181.3996,130.0271 M 177.2319,130.0271 L 177.2319,130.0271 L 175.8773,130.0271 M 171.7096,130.0271 L 171.7096,130.0271 L 160.5610,130.0271 M 156.3933,130.0271 L 156.3933,130.0271 L 155.0388,130.0271 M 150.8711,130.0271 L 150.8711,130.0271 L 149.4124,130.0271 M 145.2447,130.0271 L 145.2447,130.0271 L 134.2003,130.0271 M 130.0325,130.0271 L 130.0325,130.0271 L 128.5738,130.0271 M 124.4061,130.0271 L 124.4061,130.0271 L 123.0516,130.0271 M 118.8839,130.0271 L 118.8839,130.0271 L 107.7353,130.0271 M 103.5676,130.0271 L 103.5676,130.0271 L 102.2131,130.0271 M 98.0454,130.0271 L 98.0454,130.0271 L 96.6909,130.0271 M 92.5232,130.0271 L 92.5232,130.0271 L 81.3745,130.0271 M 77.2068,130.0271 L 77.2068,130.0271 L 75.8523,130.0271 M 71.6846,130.0271 L 71.6846,130.0271 L 70.2259,130.0271 M 66.0582,130.0271 L 66.0582,130.0271 L 65.2247,130.0271 L 65.2247,119.8166 M 65.2247,115.6491 L 65.2247,115.6491 L 65.2247,114.2946 M 65.2247,110.1271 L 65.2247,110.1271 L 65.2247,108.6685 M 65.2247,104.5009 L 65.2247,104.5009 L 65.2247,93.4570 M 65.2247,89.2894 L 65.2247,89.2894 L 65.2247,87.8308 M 65.2247,83.6633 L 65.2247,83.6633 L 65.2247,82.3088 M 65.2247,78.1413 L 65.2247,78.1413 L 65.2247,66.9931 M 65.2247,62.8256 L 65.2247,62.8256 L 65.2247,61.4711 " stroke="#000000" stroke-width="1.3545"  stroke-linecap="butt"  stroke-linejoin="round" fill="none" />

<path d="M 433.7544,357.3661 L 433.7544,357.3661 L 171.9180,357.3661 " stroke="#000000" stroke-width="1.3545"  stroke-linecap="butt"  stroke-linejoin="round" fill="none" />
<path d="M 175.6690,354.5530 L 175.6690,354.5530 L 170.0426,357.3661 L 175.6690,360.1792 L 175.6690,354.5530 Z "  stroke="none" />
<text  clip-path="url(#clip-282475249)" font-family="Helvetica" style ="white-space:pre;"   x="234.9546" y="338.7164" font-size="10" ><![CDATA[Submit Bundle]]></text>
<text  clip-path="url(#clip-282475249)" font-family="Helvetica" style ="white-space:pre;"   x="228.1821" y="350.8023" font-size="10" ><![CDATA[(Response) [CH:ORF-4]]]></text>
<text  clip-path="url(#clip-282475249)" font-family="Helvetica" style ="white-space:pre;"   x="171.0845" y="197.9579" font-size="10" ><![CDATA[Query/Retrieve Questionnaire [CH:ORF-1]]]></text>
<text  clip-path="url(#clip-282475249)" font-family="Helvetica" style ="white-space:pre;"   x="345.9199" y="197.9579" font-size="10" ><![CDATA[ ]]></text>
<path d="M 101.1712,225.8804 L 101.1712,225.8804 L 364.9872,225.7762 " stroke="#000000" stroke-width="1.3545"  stroke-linecap="butt"  stroke-linejoin="round" fill="none" />
<path d="M 361.2362,228.5893 L 361.2362,228.5893 L 366.8626,225.7762 L 361.2362,222.9631 L 361.2362,228.5893 Z "  stroke="none" />
<text  clip-path="url(#clip-282475249)" font-family="Helvetica" style ="white-space:pre;"   x="198.3830" y="219.0040" font-size="10" ><![CDATA[Retrieve Bundle [CH:ORF-3]]]></text>
<text  clip-path="url(#clip-282475249)" font-family="Helvetica" style ="white-space:pre;"   x="414.7913" y="102.6255" font-size="10" ><![CDATA[Questionnaire]]></text>
<text  clip-path="url(#clip-282475249)" font-family="Helvetica" style ="white-space:pre;"   x="430.9412" y="114.6072" font-size="10" ><![CDATA[Filler]]></text>
<path d="M 373.9477,399.4582 L 373.9477,399.4582 L 373.9477,393.8320 M 373.9477,389.6645 L 373.9477,389.6645 L 373.9477,384.1425 M 373.9477,379.9750 L 373.9477,379.9750 L 373.9477,374.4530 M 373.9477,370.2855 L 373.9477,370.2855 L 373.9477,364.6593 M 373.9477,360.4918 L 373.9477,360.4918 L 373.9477,354.9698 M 373.9477,350.8023 L 373.9477,350.8023 L 373.9477,345.2803 M 373.9477,341.1127 L 373.9477,341.1127 L 373.9477,335.4866 M 373.9477,331.3190 L 373.9477,331.3190 L 373.9477,325.7970 M 373.9477,321.6295 L 373.9477,321.6295 L 373.9477,316.1075 M 373.9477,311.9400 L 373.9477,311.9400 L 373.9477,306.3138 M 373.9477,302.1463 L 373.9477,302.1463 L 373.9477,296.6243 M 373.9477,292.4568 L 373.9477,292.4568 L 373.9477,286.9348 M 373.9477,282.7672 L 373.9477,282.7672 L 373.9477,277.1411 M 373.9477,272.9735 L 373.9477,272.9735 L 373.9477,267.4516 M 373.9477,263.2840 L 373.9477,263.2840 L 373.9477,257.7620 M 373.9477,253.5945 L 373.9477,253.5945 L 373.9477,247.9683 M 373.9477,243.8008 L 373.9477,243.8008 L 373.9477,238.2788 M 373.9477,234.1113 L 373.9477,234.1113 L 373.9477,228.5893 M 373.9477,224.4218 L 373.9477,224.4218 L 373.9477,218.7956 M 373.9477,214.6280 L 373.9477,214.6280 L 373.9477,209.1061 M 373.9477,204.9385 L 373.9477,204.9385 L 373.9477,199.4165 M 373.9477,195.2490 L 373.9477,195.2490 L 373.9477,189.6228 M 373.9477,185.4553 L 373.9477,185.4553 L 373.9477,179.9333 M 373.9477,175.7658 L 373.9477,175.7658 L 373.9477,170.2438 M 373.9477,166.0763 L 373.9477,166.0763 L 373.9477,160.4501 M 373.9477,156.2826 L 373.9477,156.2826 L 373.9477,150.7606 " stroke="#000000" stroke-width="1.3545"  stroke-linecap="butt"  stroke-linejoin="round" fill="none" />
<path d="M 366.7584,175.6616 L 366.7584,175.6616 L 381.3454,175.6616 L 381.3454,275.8908 L 366.7584,275.8908 L 366.7584,175.6616 Z "  fill="#FFFFFF" stroke="none" />
<path d="M 366.7584,175.6616 L 366.7584,175.6616 L 381.3454,175.6616 L 381.3454,275.8908 L 366.7584,275.8908 L 366.7584,175.6616 Z " stroke="#000000" stroke-width="1.3545"  stroke-linecap="butt"  stroke-linejoin="miter"  stroke-miterlimit="8.0000" fill="none" />
<path d="M 448.9665,336.7368 L 448.9665,336.7368 L 459.6984,336.7368 " stroke="#000000" stroke-width="1.3545"  stroke-linecap="butt"  stroke-linejoin="round" fill="none" />
<path d="M 452.7175,339.5499 L 452.7175,339.5499 L 447.0911,336.7368 L 452.7175,334.0279 L 452.7175,339.5499 Z "  stroke="none" />
<path d="M 459.6984,318.7122 L 459.6984,318.7122 L 459.6984,336.1117 " stroke="#000000" stroke-width="1.3545"  stroke-linecap="butt"  stroke-linejoin="round" fill="none" />
<path d="M 447.9246,317.9829 L 447.9246,317.9829 L 459.6984,317.9829 " stroke="#000000" stroke-width="1.3545"  stroke-linecap="butt"  stroke-linejoin="round" fill="none" />
<path d="M 503.0426,250.0521 L 503.0426,250.0521 L 516.3792,250.0521 L 516.3792,295.3740 L 503.0426,295.3740 L 503.0426,250.0521 Z "  fill="#FFFFFF" stroke="none" />
<path d="M 503.0426,250.0521 L 503.0426,250.0521 L 516.3792,250.0521 L 516.3792,295.3740 L 503.0426,295.3740 L 503.0426,250.0521 Z " stroke="#000000" stroke-width="1.3545"  stroke-linecap="butt"  stroke-linejoin="miter"  stroke-miterlimit="8.0000" fill="none" />
<path d="M 340.7103,61.1586 L 340.7103,61.1586 L 351.7547,61.1586 M 355.9224,61.1586 L 355.9224,61.1586 L 357.3811,61.1586 M 361.5488,61.1586 L 361.5488,61.1586 L 362.9033,61.1586 M 367.0710,61.1586 L 367.0710,61.1586 L 378.2196,61.1586 M 382.3874,61.1586 L 382.3874,61.1586 L 383.7419,61.1586 M 387.9096,61.1586 L 387.9096,61.1586 L 389.2641,61.1586 M 393.4318,61.1586 L 393.4318,61.1586 L 404.5804,61.1586 M 408.7481,61.1586 L 408.7481,61.1586 L 410.1026,61.1586 M 414.2703,61.1586 L 414.2703,61.1586 L 415.7290,61.1586 M 419.8967,61.1586 L 419.8967,61.1586 L 430.9412,61.1586 M 435.1089,61.1586 L 435.1089,61.1586 L 436.5676,61.1586 M 440.7353,61.1586 L 440.7353,61.1586 L 442.0898,61.1586 M 446.2575,61.1586 L 446.2575,61.1586 L 457.4061,61.1586 M 461.5738,61.1586 L 461.5738,61.1586 L 462.9283,61.1586 M 467.0961,61.1586 L 467.0961,61.1586 L 468.4506,61.1586 M 472.6183,61.1586 L 472.6183,61.1586 L 483.7669,61.1586 M 487.9346,61.1586 L 487.9346,61.1586 L 489.2891,61.1586 M 493.4568,61.1586 L 493.4568,61.1586 L 494.9155,61.1586 M 499.0832,61.1586 L 499.0832,61.1586 L 510.1277,61.1586 M 514.2954,61.1586 L 514.2954,61.1586 L 515.7541,61.1586 M 519.9218,61.1586 L 519.9218,61.1586 L 521.2763,61.1586 M 525.4440,61.1586 L 525.4440,61.1586 L 536.5926,61.1586 M 540.7603,61.1586 L 540.7603,61.1586 L 542.1148,61.1586 M 546,65.0135 L 546,65.0135 L 546,66.4722 M 546,70.6397 L 546,70.6397 L 546,81.6837 M 546,85.8512 L 546,85.8512 L 546,87.3099 M 546,91.4774 L 546,91.4774 L 546,92.8318 M 546,96.9994 L 546,96.9994 L 546,108.1475 M 546,112.3151 L 546,112.3151 L 546,113.6695 M 546,117.8370 L 546,117.8370 L 546,119.1915 M 546,123.3590 L 546,123.3590 L 546,130.0271 L 537.8429,130.0271 M 533.6752,130.0271 L 533.6752,130.0271 L 532.3207,130.0271 M 528.1530,130.0271 L 528.1530,130.0271 L 526.7985,130.0271 M 522.6308,130.0271 L 522.6308,130.0271 L 511.4822,130.0271 M 507.3145,130.0271 L 507.3145,130.0271 L 505.9599,130.0271 M 501.7922,130.0271 L 501.7922,130.0271 L 500.3335,130.0271 M 496.1658,130.0271 L 496.1658,130.0271 L 485.1214,130.0271 M 480.9537,130.0271 L 480.9537,130.0271 L 479.4950,130.0271 M 475.3273,130.0271 L 475.3273,130.0271 L 473.9728,130.0271 M 469.8051,130.0271 L 469.8051,130.0271 L 458.6564,130.0271 M 454.4887,130.0271 L 454.4887,130.0271 L 453.1342,130.0271 M 448.9665,130.0271 L 448.9665,130.0271 L 447.6120,130.0271 M 443.4443,130.0271 L 443.4443,130.0271 L 432.2957,130.0271 M 428.1280,130.0271 L 428.1280,130.0271 L 426.7735,130.0271 M 422.6058,130.0271 L 422.6058,130.0271 L 421.1471,130.0271 M 416.9793,130.0271 L 416.9793,130.0271 L 405.9349,130.0271 M 401.7672,130.0271 L 401.7672,130.0271 L 400.3085,130.0271 M 396.1408,130.0271 L 396.1408,130.0271 L 394.7863,130.0271 M 390.6186,130.0271 L 390.6186,130.0271 L 379.4700,130.0271 M 375.3023,130.0271 L 375.3023,130.0271 L 373.9477,130.0271 M 369.7800,130.0271 L 369.7800,130.0271 L 368.4255,130.0271 M 364.2578,130.0271 L 364.2578,130.0271 L 353.1092,130.0271 M 348.9415,130.0271 L 348.9415,130.0271 L 347.5870,130.0271 M 343.4193,130.0271 L 343.4193,130.0271 L 341.9606,130.0271 M 340.7103,127.2140 L 340.7103,127.2140 L 340.7103,116.0658 M 340.7103,111.8983 L 340.7103,111.8983 L 340.7103,110.5439 M 340.7103,106.3763 L 340.7103,106.3763 L 340.7103,104.9177 M 340.7103,100.7502 L 340.7103,100.7502 L 340.7103,89.7062 M 340.7103,85.5387 L 340.7103,85.5387 L 340.7103,84.0800 M 340.7103,79.9125 L 340.7103,79.9125 L 340.7103,78.5580 M 340.7103,74.3905 L 340.7103,74.3905 L 340.7103,63.2423 " stroke="#000000" stroke-width="1.3545"  stroke-linecap="butt"  stroke-linejoin="round" fill="none" />
</g>
</svg>
