<?xml version="1.0"  encoding="UTF-8" standalone="no"?>
<svg version="1.1" xmlns="http://www.w3.org/2000/svg" xmlns:xlink="http://www.w3.org/1999/xlink" width="450.0000" height="350.0000" >


<g transform="translate(-120, -80)">
<text  clip-path="url(#clip-282475249)" font-family="Helvetica" fill="#000000" style ="white-space:pre;" font-weight="400" text-anchor="start" x="200.5710" y="316.3159" font-size="10" ><![CDATA[Populate appropriate]]></text>
<text  clip-path="url(#clip-282475249)" font-family="Helvetica" fill="#000000" style ="white-space:pre;" font-weight="400" text-anchor="start" x="200.5710" y="328.4018" font-size="10" ><![CDATA[Elements in Questionnaire and Resources in Bundle]]></text>
<path d="M 444.4862,417.3786 L 444.4862,417.3786 L 444.4862,411.8566 M 444.4862,407.6891 L 444.4862,407.6891 L 444.4862,402.0629 M 444.4862,397.8954 L 444.4862,397.8954 L 444.4862,392.3734 M 444.4862,388.2059 L 444.4862,388.2059 L 444.4862,382.6839 M 444.4862,378.5164 L 444.4862,378.5164 L 444.4862,372.8902 M 444.4862,368.7227 L 444.4862,368.7227 L 444.4862,363.2007 M 444.4862,359.0331 L 444.4862,359.0331 L 444.4862,353.5111 M 444.4862,349.3436 L 444.4862,349.3436 L 444.4862,343.7174 M 444.4862,339.5499 L 444.4862,339.5499 L 444.4862,334.0279 M 444.4862,329.8604 L 444.4862,329.8604 L 444.4862,324.3384 M 444.4862,320.1709 L 444.4862,320.1709 L 444.4862,314.5447 M 444.4862,310.3772 L 444.4862,310.3772 L 444.4862,304.8552 M 444.4862,300.6876 L 444.4862,300.6876 L 444.4862,295.1657 M 444.4862,290.9981 L 444.4862,290.9981 L 444.4862,285.3720 M 444.4862,281.2044 L 444.4862,281.2044 L 444.4862,275.6824 M 444.4862,271.5149 L 444.4862,271.5149 L 444.4862,265.9929 M 444.4862,261.8254 L 444.4862,261.8254 L 444.4862,256.1992 M 444.4862,252.0317 L 444.4862,252.0317 L 444.4862,246.5097 M 444.4862,242.3422 L 444.4862,242.3422 L 444.4862,236.8202 M 444.4862,232.6526 L 444.4862,232.6526 L 444.4862,227.0265 M 444.4862,222.8589 L 444.4862,222.8589 L 444.4862,217.3369 M 444.4862,213.1694 L 444.4862,213.1694 L 444.4862,207.6474 M 444.4862,203.4799 L 444.4862,203.4799 L 444.4862,197.8537 M 444.4862,193.6862 L 444.4862,193.6862 L 444.4862,188.1642 M 444.4862,183.9967 L 444.4862,183.9967 L 444.4862,181.7045 " stroke="#000000" stroke-width="1.3545"  stroke-linecap="butt"  stroke-linejoin="round" fill="none" />
<text  clip-path="url(#clip-282475249)" font-family="Helvetica" fill="#000000" style ="white-space:pre;" font-weight="400" text-anchor="start" x="415.2081" y="143" font-size="10" ><![CDATA[Questionnaire]]></text>
<text  clip-path="url(#clip-282475249)" font-family="Helvetica" fill="#000000" style ="white-space:pre;" font-weight="400" text-anchor="start" x="424.2728" y="155" font-size="10" ><![CDATA[Manager]]></text>
<text  clip-path="url(#clip-282475249)" font-family="Helvetica" fill="#000000" style ="white-space:pre;" font-weight="400" text-anchor="start" x="143" y="143" font-size="10" ><![CDATA[Questionnaire]]></text>
<text  clip-path="url(#clip-282475249)" font-family="Helvetica" fill="#000000" style ="white-space:pre;" font-weight="400" text-anchor="start" x="153.9969" y="155" font-size="10" ><![CDATA[Manager]]></text>
<path d="M 180.7744,226.5055 L 180.7744,226.5055 L 434.7963,226.2971 " stroke="#000000" stroke-width="1.3545"  stroke-linecap="butt"  stroke-linejoin="round" fill="none" />
<path d="M 431.1496,229.1102 L 431.1496,229.1102 L 436.6718,226.2971 L 431.1496,223.4841 L 431.1496,229.1102 Z "  fill="#000000" stroke="none" />
<text  clip-path="url(#clip-282475249)" font-family="Helvetica" fill="#000000" style ="white-space:pre;" font-weight="400" text-anchor="start" x="261.1070" y="196.0825" font-size="10" ><![CDATA[Query]]></text>
<text  clip-path="url(#clip-282475249)" font-family="Helvetica" fill="#000000" style ="white-space:pre;" font-weight="400" text-anchor="start" x="245.2697" y="208.1684" font-size="10" ><![CDATA[Questionnaire]]></text>
<text  clip-path="url(#clip-282475249)" font-family="Helvetica" fill="#000000" style ="white-space:pre;" font-weight="400" text-anchor="start" x="248.9165" y="220.2542" font-size="10" ><![CDATA[[CH:ORF-1]]]></text>
<path d="M 180.7744,269.1186 L 180.7744,269.1186 L 435.0047,269.1186 " stroke="#000000" stroke-width="1.3545"  stroke-linecap="butt"  stroke-linejoin="round" fill="none" />
<path d="M 431.2538,266.3055 L 431.2538,266.3055 L 436.8802,269.1186 L 431.2538,271.9317 L 431.2538,266.3055 Z "  fill="#000000" stroke="none" />
<text  clip-path="url(#clip-282475249)" font-family="Helvetica" fill="#000000" style ="white-space:pre;" font-weight="400" text-anchor="start" x="266.7334" y="252.2401" font-size="10" ><![CDATA[Retrieve]]></text>
<text  clip-path="url(#clip-282475249)" font-family="Helvetica" fill="#000000" style ="white-space:pre;" font-weight="400" text-anchor="start" x="244.3320" y="264.2217" font-size="10" ><![CDATA[Bundle [CH:ORF-4]]]></text>
<path d="M 436.9844,208.6893 L 436.9844,208.6893 L 451.8839,208.6893 L 451.8839,298.3955 L 436.9844,298.3955 L 436.9844,208.6893 Z "  fill="#FFFFFF" stroke="none" />
<path d="M 436.9844,208.6893 L 436.9844,208.6893 L 451.8839,208.6893 L 451.8839,298.3955 L 436.9844,298.3955 L 436.9844,208.6893 Z " stroke="#000000" stroke-width="1.3545"  stroke-linecap="butt"  stroke-linejoin="miter"  stroke-miterlimit="8.0000" fill="none" />
<path d="M 181.8163,330.1730 L 181.8163,330.1730 L 192.5482,330.1730 " stroke="#000000" stroke-width="1.3545"  stroke-linecap="butt"  stroke-linejoin="round" fill="none" />
<path d="M 185.5673,332.9860 L 185.5673,332.9860 L 180.0451,330.1730 L 185.5673,327.3599 L 185.5673,332.9860 Z "  fill="#000000" stroke="none" />
<path d="M 192.5482,313.3986 L 192.5482,313.3986 L 192.5482,330.7981 " stroke="#000000" stroke-width="1.3545"  stroke-linecap="butt"  stroke-linejoin="round" fill="none" />
<path d="M 180.7744,312.6693 L 180.7744,312.6693 L 192.5482,312.6693 " stroke="#000000" stroke-width="1.3545"  stroke-linecap="butt"  stroke-linejoin="round" fill="none" />
<text  clip-path="url(#clip-282475249)" font-family="Helvetica" fill="#000000" style ="white-space:pre;" font-weight="400" text-anchor="start" x="227.4528" y="114.9198" font-size="10" ><![CDATA[Questionnaire]]></text>
<text  clip-path="url(#clip-282475249)" font-family="Helvetica" fill="#000000" style ="white-space:pre;" font-weight="400" text-anchor="start" x="234.8504" y="127.0056" font-size="10" ><![CDATA[Processor]]></text>
<text  clip-path="url(#clip-282475249)" font-family="Helvetica" fill="#000000" style ="white-space:pre;" font-weight="400" text-anchor="start" x="278" y="143" font-size="10" ><![CDATA[Questionnaire]]></text>
<text  clip-path="url(#clip-282475249)" font-family="Helvetica" fill="#000000" style ="white-space:pre;" font-weight="400" text-anchor="start" x="289.0307" y="155" font-size="10" ><![CDATA[Receiver]]></text>
<text  clip-path="url(#clip-282475249)" font-family="Helvetica" fill="#000000" font-weight="400" text-anchor="start" x="212" y="143" font-size="10" ><![CDATA[Questionnaire]]></text>
<text  clip-path="url(#clip-282475249)" font-family="Helvetica" fill="#000000" style ="white-space:pre;" font-weight="400" text-anchor="start" x="230.3702" y="155" font-size="10" ><![CDATA[Filler]]></text>
<path d="M 171.8138,417.3786 L 171.8138,417.3786 L 171.9180,411.8566 M 171.9180,407.6891 L 171.9180,407.6891 L 172.0222,402.0629 M 172.1264,397.8954 L 172.1264,397.8954 L 172.2306,392.3734 M 172.2306,388.2059 L 172.2306,388.2059 L 172.3348,382.6839 M 172.4390,378.5164 L 172.4390,378.5164 L 172.5432,372.8902 M 172.5432,368.7227 L 172.5432,368.7227 L 172.6474,363.2007 M 172.7516,359.0331 L 172.7516,359.0331 L 172.8558,353.5111 M 172.8558,349.3436 L 172.8558,349.3436 L 172.9599,343.7174 M 173.0641,339.5499 L 173.0641,339.5499 L 173.1683,334.0279 M 173.1683,329.8604 L 173.1683,329.8604 L 173.2725,324.3384 M 173.3767,320.1709 L 173.3767,320.1709 L 173.4809,314.5447 M 173.4809,310.3772 L 173.4809,310.3772 L 173.5851,304.8552 M 173.6893,300.6876 L 173.6893,300.6876 L 173.7935,295.1657 M 173.7935,290.9981 L 173.7935,290.9981 L 173.8977,285.3720 M 174.0019,281.2044 L 174.0019,281.2044 L 174.1061,275.6824 M 174.1061,271.5149 L 174.1061,271.5149 L 174.2103,265.9929 M 174.3145,261.8254 L 174.3145,261.8254 L 174.4186,256.1992 M 174.4186,252.0317 L 174.4186,252.0317 L 174.5228,246.5097 M 174.6270,242.3422 L 174.6270,242.3422 L 174.7312,236.8202 M 174.7312,232.6526 L 174.7312,232.6526 L 174.8354,227.0265 M 174.9396,222.8589 L 174.9396,222.8589 L 175.0438,217.3369 M 175.0438,213.1694 L 175.0438,213.1694 L 175.1480,207.6474 M 175.2522,203.4799 L 175.2522,203.4799 L 175.3564,197.8537 M 175.3564,193.6862 L 175.3564,193.6862 L 175.4606,188.5810 " stroke="#000000" stroke-width="1.3545"  stroke-linecap="butt"  stroke-linejoin="round" fill="none" />
<path d="M 166.1874,211.3982 L 166.1874,211.3982 L 180.7744,211.3982 L 180.7744,354.8656 L 166.1874,354.8656 L 166.1874,211.3982 Z "  fill="#FFFFFF" stroke="none" />
<path d="M 166.1874,211.3982 L 166.1874,211.3982 L 180.7744,211.3982 L 180.7744,354.8656 L 166.1874,354.8656 L 166.1874,211.3982 Z " stroke="#000000" stroke-width="1.3545"  stroke-linecap="butt"  stroke-linejoin="miter"  stroke-miterlimit="8.0000" fill="none" />
<path d="M 140.1392,102.1046 L 140.1392,102.1046 L 151.1837,102.1046 M 155.3514,102.1046 L 155.3514,102.1046 L 156.8101,102.1046 M 160.9778,102.1046 L 160.9778,102.1046 L 162.3323,102.1046 M 166.5000,102.1046 L 166.5000,102.1046 L 177.6486,102.1046 M 181.8163,102.1046 L 181.8163,102.1046 L 183.1708,102.1046 M 187.3385,102.1046 L 187.3385,102.1046 L 188.6931,102.1046 M 192.8608,102.1046 L 192.8608,102.1046 L 204.0094,102.1046 M 208.1771,102.1046 L 208.1771,102.1046 L 209.5316,102.1046 M 213.6993,102.1046 L 213.6993,102.1046 L 215.1580,102.1046 M 219.3257,102.1046 L 219.3257,102.1046 L 230.3702,102.1046 M 234.5379,102.1046 L 234.5379,102.1046 L 235.9966,102.1046 M 240.1643,102.1046 L 240.1643,102.1046 L 241.5188,102.1046 M 245.6865,102.1046 L 245.6865,102.1046 L 256.8351,102.1046 M 261.0028,102.1046 L 261.0028,102.1046 L 262.3573,102.1046 M 266.5250,102.1046 L 266.5250,102.1046 L 267.8795,102.1046 M 272.0472,102.1046 L 272.0472,102.1046 L 283.1959,102.1046 M 287.3636,102.1046 L 287.3636,102.1046 L 288.7181,102.1046 M 292.8858,102.1046 L 292.8858,102.1046 L 294.3445,102.1046 M 298.5122,102.1046 L 298.5122,102.1046 L 309.5566,102.1046 M 313.7243,102.1046 L 313.7243,102.1046 L 315.1830,102.1046 M 319.3508,102.1046 L 319.3508,102.1046 L 320.7053,102.1046 M 324.8730,102.1046 L 324.8730,102.1046 L 336.0216,102.1046 M 340.1893,102.1046 L 340.1893,102.1046 L 341.5438,102.1046 M 341.8564,106.0638 L 341.8564,106.0638 L 341.8564,107.4182 M 341.8564,111.5857 L 341.8564,111.5857 L 341.8564,122.7339 M 341.8564,126.9014 L 341.8564,126.9014 L 341.8564,128.2559 M 341.8564,132.4234 L 341.8564,132.4234 L 341.8564,133.7779 M 341.8564,137.9454 L 341.8564,137.9454 L 341.8564,149.0936 M 341.8564,153.2611 L 341.8564,153.2611 L 341.8564,154.6155 M 341.8564,158.7831 L 341.8564,158.7831 L 341.8564,160.2417 M 341.8564,164.4093 L 341.8564,164.4093 L 341.8564,170.9731 L 337.2719,170.9731 M 333.1042,170.9731 L 333.1042,170.9731 L 331.7497,170.9731 M 327.5820,170.9731 L 327.5820,170.9731 L 326.2275,170.9731 M 322.0598,170.9731 L 322.0598,170.9731 L 310.9111,170.9731 M 306.7434,170.9731 L 306.7434,170.9731 L 305.3889,170.9731 M 301.2212,170.9731 L 301.2212,170.9731 L 299.7625,170.9731 M 295.5948,170.9731 L 295.5948,170.9731 L 284.5504,170.9731 M 280.3827,170.9731 L 280.3827,170.9731 L 278.9240,170.9731 M 274.7563,170.9731 L 274.7563,170.9731 L 273.4018,170.9731 M 269.2340,170.9731 L 269.2340,170.9731 L 258.0854,170.9731 M 253.9177,170.9731 L 253.9177,170.9731 L 252.5632,170.9731 M 248.3955,170.9731 L 248.3955,170.9731 L 247.0410,170.9731 M 242.8733,170.9731 L 242.8733,170.9731 L 231.7247,170.9731 M 227.5569,170.9731 L 227.5569,170.9731 L 226.2024,170.9731 M 222.0347,170.9731 L 222.0347,170.9731 L 220.5760,170.9731 M 216.4083,170.9731 L 216.4083,170.9731 L 205.3639,170.9731 M 201.1962,170.9731 L 201.1962,170.9731 L 199.7375,170.9731 M 195.5698,170.9731 L 195.5698,170.9731 L 194.2153,170.9731 M 190.0476,170.9731 L 190.0476,170.9731 L 178.8989,170.9731 M 174.7312,170.9731 L 174.7312,170.9731 L 173.3767,170.9731 M 169.2090,170.9731 L 169.2090,170.9731 L 167.8545,170.9731 M 163.6868,170.9731 L 163.6868,170.9731 L 152.5382,170.9731 M 148.3705,170.9731 L 148.3705,170.9731 L 147.0160,170.9731 M 142.8482,170.9731 L 142.8482,170.9731 L 141.3895,170.9731 M 140.1392,168.1600 L 140.1392,168.1600 L 140.1392,157.0119 M 140.1392,152.8443 L 140.1392,152.8443 L 140.1392,151.4899 M 140.1392,147.3224 L 140.1392,147.3224 L 140.1392,145.9679 M 140.1392,141.8004 L 140.1392,141.8004 L 140.1392,130.6522 M 140.1392,126.4847 L 140.1392,126.4847 L 140.1392,125.1302 M 140.1392,120.9627 L 140.1392,120.9627 L 140.1392,119.5041 M 140.1392,115.3365 L 140.1392,115.3365 L 140.1392,104.2926 " stroke="#000000" stroke-width="1.3545"  stroke-linecap="butt"  stroke-linejoin="round" fill="none" />
<text  clip-path="url(#clip-282475249)" font-family="Helvetica" fill="#000000" style ="white-space:pre;" font-weight="400" text-anchor="start" x="477.4111" y="254.8448" font-size="10" ><![CDATA[Assemble]]></text>
<text  clip-path="url(#clip-282475249)" font-family="Helvetica" fill="#000000" style ="white-space:pre;" font-weight="400" text-anchor="start" x="477.4111" y="266.9306" font-size="10" ><![CDATA[Bundle]]></text>
<text  clip-path="url(#clip-282475249)" font-family="Helvetica" fill="#000000" style ="white-space:pre;" font-weight="400" text-anchor="start" x="477.4111" y="278.9123" font-size="10" ><![CDATA[(according to]]></text>
<text  clip-path="url(#clip-282475249)" font-family="Helvetica" fill="#000000" style ="white-space:pre;" font-weight="400" text-anchor="start" x="477.4111" y="290.9981" font-size="10" ><![CDATA[Questionnaire)]]></text>
<path d="M 453.7594,273.3903 L 453.7594,273.3903 L 472.3057,273.3903 " stroke="#000000" stroke-width="1.3545"  stroke-linecap="butt"  stroke-linejoin="round" fill="none" />
<path d="M 457.4061,276.2034 L 457.4061,276.2034 L 451.8839,273.3903 L 457.4061,270.5772 L 457.4061,276.2034 Z "  fill="#000000" stroke="none" />
<path d="M 472.4099,267.2432 L 472.4099,267.2432 L 472.4099,273.3903 " stroke="#000000" stroke-width="1.3545"  stroke-linecap="butt"  stroke-linejoin="round" fill="none" />
<path d="M 451.4671,267.2432 L 451.4671,267.2432 L 472.4099,267.2432 " stroke="#000000" stroke-width="1.3545"  stroke-linecap="butt"  stroke-linejoin="round" fill="none" />
</g>
</svg>
