<?xml version="1.0" encoding="utf-8"?>
<!-- Generator: Adobe Illustrator 20.1.0, SVG Export Plug-In . SVG Version: 6.00 Build 0)  -->
<svg version="1.1" id="Ebene_1" xmlns="http://www.w3.org/2000/svg" xmlns:xlink="http://www.w3.org/1999/xlink" x="0px" y="0px"
	 viewBox="0 0 174.5 44.5" style="enable-background:new 0 0 174.5 44.5;" xml:space="preserve">
<style type="text/css">
	.st0{fill:#009FE3;}
	.st1{fill:#312783;}
</style>
<g>
	<path class="st0" d="M12.4,15.2c-0.1,0-8.5,0-8.5,0C4,18.2,5.7,20,8.3,20c1.2,0,2.5-0.4,3.7-1.2l1,2c-2,1.2-3.6,1.6-5.5,1.6
		c-2.1,0-3.8-0.7-5.1-2C0.9,19.1,0,16.9,0,14.6c0-2.2,0.8-4.1,2.1-5.4s3-2,5-2c2.5,0,4.3,1.1,5.3,3.2c0.5,1.1,0.8,2.5,0.8,4.3
		C13.2,14.9,13.2,15.2,12.4,15.2z M9.8,12.5c-0.1-2-1-3.3-2.7-3.3c-1.8,0-3,1.4-3.1,4h5.8C9.8,13.1,9.8,12.7,9.8,12.5z"/>
	<path class="st1" d="M25.9,22.1v-8.4c0-1.5-0.1-2.1-0.5-2.7c-0.5-0.8-1.2-1.2-2.3-1.2c-1.4,0-2.4,0.6-2.9,1.8
		c-0.3,0.6-0.3,1.3-0.3,2.7v7.9h-3.8v-19h3.8v6.3c1.4-1.6,2.9-2.3,4.8-2.3c2.2,0,3.8,1,4.5,2.7c0.3,0.9,0.4,1.7,0.4,3.9v8.3
		C29.6,22.1,25.9,22.1,25.9,22.1z"/>
	<path class="st1" d="M45,15.2h-8.5c0.1,3,1.8,4.8,4.3,4.8c1.2,0,2.5-0.4,3.7-1.2l1,2c-2,1.2-3.6,1.6-5.5,1.6c-2.1,0-3.8-0.7-5.1-2
		c-1.5-1.4-2.3-3.6-2.3-5.9c0-2.2,0.8-4.1,2.1-5.4s3-2,5-2c2.5,0,4.3,1.1,5.3,3.2c0.5,1.1,0.8,2.5,0.8,4.3
		C45.7,14.9,45.7,15.2,45,15.2z M42.4,12.5c-0.1-2-1-3.3-2.7-3.3c-1.8,0-3,1.4-3.1,4h5.8C42.4,13.1,42.4,12.7,42.4,12.5z"/>
	<path class="st1" d="M56.4,22.1c-0.3-0.7-0.3-0.9-0.3-2c-1.5,1.8-3.2,2.3-4.5,2.3c-2.2,0-4.1-1.8-4.1-4.2c0-1.8,1-3.2,2.6-4.2
		c0.9-0.6,2.4-1.1,3.8-1.5c0.5-0.1,1.8-0.5,2.3-0.6c-0.3-1.6-1.1-2.6-2.9-2.6c-1.2,0-2.3,0.5-3.6,1.6l-1.2-1.8c1.7-1.4,3.4-2,5.6-2
		c2.1,0,3.8,0.6,4.7,2c0.7,1,0.9,1.8,0.9,4.4v3.9c0,2.6,0.1,3.3,0.6,4.6L56.4,22.1L56.4,22.1z M56.2,14.2c-0.5,0.1-0.9,0.2-1.5,0.4
		c-1.9,0.5-3.6,1.3-3.6,3.1c0,1.3,0.8,2.2,1.9,2.2c1.5,0,2.5-1.2,2.9-2.2c0.2-0.5,0.4-1.3,0.3-2.1C56.2,15.6,56.2,14.4,56.2,14.2z"
		/>
	<path class="st1" d="M63.6,22.1v-19h3.7v19H63.6z"/>
	<path class="st1" d="M76,22.5c-1.6,0-2.9-0.6-3.6-1.7c-0.6-0.8-0.7-1.5-0.7-3.8V9.5h-2v-2h2V3.1h3.7v4.4h3.7v2h-3.7v6.7
		c0,2.9,0.5,3.9,2,3.9c0.6,0,1.2-0.1,1.8-0.5l0.6,1.9C78.6,22.2,77.3,22.5,76,22.5z"/>
	<path class="st1" d="M91.6,22.1v-8.4c0-1.5-0.1-2.1-0.5-2.7c-0.5-0.8-1.2-1.2-2.3-1.2c-1.4,0-2.4,0.6-2.9,1.8
		c-0.3,0.6-0.3,1.3-0.3,2.7v7.9h-3.8v-19h3.8v6.3c1.4-1.6,2.9-2.3,4.8-2.3c2.2,0,3.8,1,4.5,2.7c0.3,0.9,0.4,1.7,0.4,3.9v8.3
		C95.3,22.1,91.6,22.1,91.6,22.1z"/>
	<path class="st0" d="M102.5,22.5c-1.8,0-3.2-0.5-4.7-1.7l1.2-2c1.2,1,2,1.5,3,1.5c1.2,0,2-0.7,2-1.8c0-1-0.5-1.5-2.4-2.9
		c-1.5-1.1-3-2.2-3-4.3c0-2.4,2-4,4.8-4c1.5,0,2.9,0.4,4,1.2l-1.1,1.8c-0.7-0.5-1.6-0.8-2.4-0.8c-1,0-1.8,0.6-1.8,1.4
		c0,0.8,0.5,1.3,1.9,2.4c2.9,2.2,3.6,3.1,3.6,4.9C107.8,20.7,105.6,22.5,102.5,22.5z"/>
	<path class="st0" d="M120.2,22.1v-2c-1.4,1.6-2.9,2.3-4.8,2.3c-2.2,0-3.8-0.9-4.5-2.7c-0.3-0.9-0.4-1.7-0.4-3.9V7.5h3.7v8.4
		c0,1.5,0.1,2.1,0.5,2.7c0.5,0.8,1.2,1.2,2.3,1.2c1.4,0,2.4-0.6,2.9-1.8c0.3-0.6,0.4-1.3,0.4-2.7V7.5h3.7v14.6H120.2z"/>
	<path class="st0" d="M128,22.1V7.5h3.7v14.6H128z"/>
	<path class="st0" d="M139,22.5c-1.8,0-3.2-0.5-4.7-1.7l1.2-2c1.2,1,2,1.5,3,1.5c1.2,0,2-0.7,2-1.8c0-1-0.5-1.5-2.4-2.9
		c-1.5-1.1-3-2.2-3-4.3c0-2.4,2-4,4.8-4c1.5,0,2.9,0.4,4,1.2l-1.1,1.8c-0.7-0.5-1.6-0.8-2.4-0.8c-1,0-1.8,0.6-1.8,1.4
		c0,0.8,0.5,1.3,1.9,2.4c2.9,2.2,3.6,3.1,3.6,4.9C144.3,20.7,142.1,22.5,139,22.5z"/>
	<path class="st0" d="M150.7,22.5c-1.8,0-3.2-0.5-4.7-1.7l1.2-2c1.2,1,2,1.5,3,1.5c1.2,0,2-0.7,2-1.8c0-1-0.5-1.5-2.4-2.9
		c-1.5-1.1-3-2.2-3-4.3c0-2.4,2-4,4.8-4c1.5,0,2.9,0.4,4,1.2l-1.1,1.8c-0.7-0.5-1.6-0.8-2.4-0.8c-1,0-1.8,0.6-1.8,1.4
		c0,0.8,0.5,1.3,1.9,2.4c2.9,2.2,3.6,3.1,3.6,4.9C156,20.7,153.8,22.5,150.7,22.5z"/>
	<path class="st0" d="M170.4,15.2h-8.5c0.1,3,1.8,4.8,4.3,4.8c1.2,0,2.5-0.4,3.7-1.2l1,2c-2,1.2-3.6,1.6-5.5,1.6
		c-2.1,0-3.8-0.7-5.1-2c-1.5-1.4-2.3-3.6-2.3-5.9c0-2.2,0.8-4.1,2.1-5.4s3-2,5-2c2.5,0,4.3,1.1,5.3,3.2c0.5,1.1,0.8,2.5,0.8,4.3
		C171.1,14.9,171.1,15.2,170.4,15.2z M167.8,12.5c-0.1-2-1-3.3-2.7-3.3c-1.8,0-3,1.4-3.1,4h5.8C167.8,13.1,167.8,12.7,167.8,12.5z"
		/>
</g>
<g>
	<path d="M16.9,33.4h-0.6v-5.1h0.6V31h0l2.1-2.6h0.7l-1.6,1.9l1.8,3.2h-0.6l-1.5-2.7l-0.8,1V33.4z"/>
	<path d="M21.8,33.5c-1,0-1.5-0.8-1.5-1.9c0-1,0.5-1.9,1.5-1.9s1.5,0.8,1.5,1.9C23.3,32.7,22.8,33.5,21.8,33.5z M21.8,30.1
		c-0.6,0-1,0.5-1,1.5c0,0.9,0.4,1.5,1,1.5c0.6,0,1-0.5,1-1.5C22.8,30.7,22.4,30.1,21.8,30.1z"/>
	<path d="M24.2,33.4v-3.6h0.5v0.5l0,0c0.3-0.3,0.7-0.5,1.1-0.5c0.5,0,0.8,0.2,0.9,0.6c0.3-0.3,0.7-0.6,1.2-0.6c0.5,0,1,0.2,1,1.1
		v2.6h-0.5v-2.6c0-0.5-0.2-0.7-0.6-0.7c-0.4,0-0.7,0.3-1,0.6v2.7h-0.5v-2.6c0-0.5-0.2-0.7-0.6-0.7c-0.4,0-0.7,0.3-1,0.6v2.7H24.2z"
		/>
	<path d="M30.1,34.8v-5h0.5v0.4h0c0.2-0.3,0.6-0.5,0.9-0.5c0.6,0,1.5,0.4,1.5,1.9c0,1.4-0.8,1.9-1.5,1.9c-0.3,0-0.7-0.2-1-0.4l0,0
		v1.7H30.1z M30.6,32.6c0.3,0.3,0.6,0.5,0.9,0.5c0.6,0,1-0.4,1-1.5c0-0.9-0.4-1.4-1-1.4c-0.3,0-0.6,0.1-0.9,0.5V32.6z"/>
	<path d="M36.7,32.6c-0.2,0.4-0.6,0.8-1.4,0.8c-0.8,0-1.6-0.6-1.6-1.9c0-1.2,0.6-1.9,1.5-1.9c0.8,0,1.4,0.5,1.4,1.7v0.3h-2.4
		c0,0.8,0.5,1.4,1.1,1.4c0.4,0,0.8-0.2,1-0.6L36.7,32.6z M36.1,31.3c0-0.7-0.3-1.1-0.9-1.1c-0.6,0-0.9,0.4-1,1.1H36.1z"/>
	<path d="M37.7,29.8v-1.2h0.5v1.2h0.8v0.4h-0.8v2.6c0,0.2,0.1,0.3,0.4,0.3c0.2,0,0.3,0,0.4,0v0.4c-0.1,0-0.3,0.1-0.6,0.1
		c-0.5,0-0.8-0.1-0.8-0.6v-2.7h-0.6v-0.4H37.7z"/>
	<path d="M42.6,32.6c-0.2,0.4-0.6,0.8-1.4,0.8c-0.8,0-1.6-0.6-1.6-1.9c0-1.2,0.6-1.9,1.5-1.9c0.8,0,1.4,0.5,1.4,1.7v0.3h-2.4
		c0,0.8,0.5,1.4,1.1,1.4c0.4,0,0.8-0.2,1-0.6L42.6,32.6z M42,31.3c0-0.7-0.3-1.1-0.9-1.1c-0.6,0-0.9,0.4-1,1.1H42z"/>
	<path d="M44,29.8v0.5h0c0.3-0.3,0.7-0.6,1.1-0.6c0.5,0,1.1,0.3,1.1,1.1v2.6h-0.5v-2.6c0-0.5-0.2-0.6-0.6-0.6c-0.4,0-0.8,0.3-1,0.6
		v2.7h-0.5v-3.6H44z"/>
	<path d="M49.6,33.4h-2.7v-0.4l2-2.8h-1.8v-0.4h2.5v0.4l-2,2.8h2V33.4z"/>
	<path d="M50.1,31.8v-0.4h1.8v0.4H50.1z"/>
	<path d="M57.1,33.4v-0.5h0c-0.3,0.3-0.7,0.6-1.1,0.6c-0.5,0-1.1-0.3-1.1-1.1v-2.6h0.5v2.6c0,0.5,0.2,0.6,0.6,0.6
		c0.4,0,0.8-0.3,1-0.6v-2.7h0.5v3.6H57.1z"/>
	<path d="M59.3,29.8v0.5h0c0.3-0.3,0.7-0.6,1.1-0.6c0.5,0,1.1,0.3,1.1,1.1v2.6h-0.5v-2.6c0-0.5-0.2-0.6-0.6-0.6
		c-0.4,0-0.8,0.3-1,0.6v2.7h-0.5v-3.6H59.3z"/>
	<path d="M65.3,28.4v4.3c0,0.3,0,0.5,0,0.8h-0.5l-0.1-0.4c-0.2,0.2-0.5,0.4-1,0.4c-0.6,0-1.5-0.4-1.5-1.9c0-1.4,0.8-1.9,1.5-1.9
		c0.3,0,0.7,0.2,1,0.4l0,0v-1.8H65.3z M64.8,30.7c-0.3-0.3-0.6-0.5-0.9-0.5c-0.6,0-1,0.4-1,1.5c0,0.9,0.4,1.4,1,1.4
		c0.3,0,0.6-0.1,0.9-0.5V30.7z"/>
	<path d="M69.5,33.4h-0.6v-5.1h0.6V31h0l2.1-2.6h0.7l-1.6,1.9l1.8,3.2h-0.6l-1.5-2.7l-0.8,1V33.4z"/>
	<path d="M74.4,33.5c-1,0-1.5-0.8-1.5-1.9c0-1,0.5-1.9,1.5-1.9s1.5,0.8,1.5,1.9C75.9,32.7,75.4,33.5,74.4,33.5z M74.4,30.1
		c-0.6,0-1,0.5-1,1.5c0,0.9,0.4,1.5,1,1.5c0.6,0,1-0.5,1-1.5C75.4,30.7,75,30.1,74.4,30.1z"/>
	<path d="M78.1,33.5c-1,0-1.5-0.8-1.5-1.9c0-1,0.5-1.9,1.5-1.9s1.5,0.8,1.5,1.9C79.6,32.7,79.1,33.5,78.1,33.5z M78.1,30.1
		c-0.6,0-1,0.5-1,1.5c0,0.9,0.4,1.5,1,1.5c0.6,0,1-0.5,1-1.5C79.1,30.7,78.7,30.1,78.1,30.1z"/>
	<path d="M80.4,29.8h0.5v0.7h0c0.3-0.5,0.6-0.8,1.2-0.8v0.5c-0.6,0-1,0.4-1.2,1.2v2h-0.5V29.8z"/>
	<path d="M85.6,28.4v4.3c0,0.3,0,0.5,0,0.8h-0.5l-0.1-0.4c-0.2,0.2-0.5,0.4-1,0.4c-0.6,0-1.5-0.4-1.5-1.9c0-1.4,0.8-1.9,1.5-1.9
		c0.3,0,0.7,0.2,1,0.4l0,0v-1.8H85.6z M85.1,30.7c-0.3-0.3-0.6-0.5-0.9-0.5c-0.6,0-1,0.4-1,1.5c0,0.9,0.4,1.4,1,1.4
		c0.3,0,0.6-0.1,0.9-0.5V30.7z"/>
	<path d="M87.3,28.3v0.6h-0.5v-0.6H87.3z M86.8,29.8h0.5v3.6h-0.5V29.8z"/>
	<path d="M89.1,29.8v0.5h0c0.3-0.3,0.7-0.6,1.1-0.6c0.5,0,1.1,0.3,1.1,1.1v2.6h-0.5v-2.6c0-0.5-0.2-0.6-0.6-0.6
		c-0.4,0-0.8,0.3-1,0.6v2.7h-0.5v-3.6H89.1z"/>
	<path d="M92.2,30.5c0.2-0.4,0.7-0.8,1.4-0.8c0.6,0,1.3,0.3,1.3,1.1v1.8c0,0.4,0,0.6,0.1,0.8h-0.5l-0.1-0.5
		c-0.3,0.3-0.7,0.6-1.2,0.6c-0.6,0-1-0.3-1-1c0-0.8,0.6-1.2,2.2-1.5v-0.2c0-0.5-0.3-0.7-0.8-0.7c-0.6,0-0.8,0.3-0.9,0.6L92.2,30.5z
		 M94.4,31.5c-1.2,0.2-1.7,0.5-1.7,1c0,0.3,0.3,0.6,0.6,0.6c0.4,0,0.8-0.3,1.1-0.6V31.5z"/>
	<path d="M96.1,29.8v-1.2h0.5v1.2h0.8v0.4h-0.8v2.6c0,0.2,0.1,0.3,0.4,0.3c0.2,0,0.3,0,0.4,0v0.4c-0.1,0-0.3,0.1-0.6,0.1
		c-0.5,0-0.8-0.1-0.8-0.6v-2.7h-0.6v-0.4H96.1z"/>
	<path d="M98.9,28.3v0.6h-0.5v-0.6H98.9z M98.4,29.8h0.5v3.6h-0.5V29.8z"/>
	<path d="M101.4,33.5c-1,0-1.5-0.8-1.5-1.9c0-1,0.5-1.9,1.5-1.9s1.5,0.8,1.5,1.9C102.9,32.7,102.4,33.5,101.4,33.5z M101.4,30.1
		c-0.6,0-1,0.5-1,1.5c0,0.9,0.4,1.5,1,1.5s1-0.5,1-1.5C102.4,30.7,102,30.1,101.4,30.1z"/>
	<path d="M104.3,29.8v0.5h0c0.3-0.3,0.7-0.6,1.1-0.6c0.5,0,1.1,0.3,1.1,1.1v2.6h-0.5v-2.6c0-0.5-0.2-0.6-0.6-0.6
		c-0.4,0-0.8,0.3-1,0.6v2.7h-0.5v-3.6H104.3z"/>
	<path d="M107.7,32.5c0.2,0.3,0.6,0.6,1,0.6c0.5,0,0.8-0.3,0.8-0.6c0-0.9-2.2-0.4-2.1-1.8c0-0.6,0.5-1,1.2-1c0.5,0,1,0.3,1.2,0.6
		l-0.4,0.3c-0.3-0.3-0.5-0.5-0.9-0.5c-0.4,0-0.7,0.2-0.7,0.5c0,0.8,2.1,0.4,2.1,1.7c0,0.7-0.6,1.1-1.3,1.1c-0.6,0-1.1-0.2-1.5-0.7
		L107.7,32.5z"/>
	<path d="M111,32.5c0.2,0.3,0.6,0.6,1,0.6c0.5,0,0.8-0.3,0.8-0.6c0-0.9-2.2-0.4-2.1-1.8c0-0.6,0.5-1,1.2-1c0.5,0,1,0.3,1.2,0.6
		l-0.4,0.3c-0.3-0.3-0.5-0.5-0.9-0.5c-0.4,0-0.7,0.2-0.7,0.5c0,0.8,2.1,0.4,2.1,1.7c0,0.7-0.6,1.1-1.3,1.1c-0.6,0-1.1-0.2-1.5-0.7
		L111,32.5z"/>
	<path d="M114.4,29.8v-1.2h0.5v1.2h0.8v0.4h-0.8v2.6c0,0.2,0.1,0.3,0.4,0.3c0.2,0,0.3,0,0.4,0v0.4c-0.1,0-0.3,0.1-0.6,0.1
		c-0.5,0-0.8-0.1-0.8-0.6v-2.7h-0.6v-0.4H114.4z"/>
	<path d="M119.2,32.6c-0.2,0.4-0.6,0.8-1.4,0.8c-0.8,0-1.6-0.6-1.6-1.9c0-1.2,0.6-1.9,1.5-1.9c0.8,0,1.4,0.5,1.4,1.7v0.3h-2.4
		c0,0.8,0.5,1.4,1.1,1.4c0.4,0,0.8-0.2,1-0.6L119.2,32.6z M118.6,31.3c0-0.7-0.3-1.1-0.9-1.1c-0.6,0-0.9,0.4-1,1.1H118.6z"/>
	<path d="M120.7,28.4v5.1h-0.5v-5.1H120.7z"/>
	<path d="M122.5,28.4v5.1H122v-5.1H122.5z"/>
	<path d="M126.5,32.6c-0.2,0.4-0.6,0.8-1.4,0.8c-0.8,0-1.6-0.6-1.6-1.9c0-1.2,0.6-1.9,1.5-1.9c0.8,0,1.4,0.5,1.4,1.7v0.3H124
		c0,0.8,0.5,1.4,1.1,1.4c0.4,0,0.8-0.2,1-0.6L126.5,32.6z M125.8,31.3c0-0.7-0.3-1.1-0.9-1.1c-0.6,0-0.9,0.4-1,1.1H125.8z"/>
	<path d="M17.4,41.8h-0.7l-1.1-3.6h0.5l0.9,3h0l0.9-3h0.5L17.4,41.8z"/>
	<path d="M20.4,41.9c-1,0-1.5-0.8-1.5-1.9c0-1,0.5-1.9,1.5-1.9s1.5,0.8,1.5,1.9C21.9,41.1,21.4,41.9,20.4,41.9z M20.4,38.5
		c-0.6,0-1,0.5-1,1.5s0.4,1.5,1,1.5c0.6,0,1-0.5,1-1.5S21,38.5,20.4,38.5z"/>
	<path d="M23.3,38.2v0.5h0c0.3-0.3,0.7-0.6,1.1-0.6c0.5,0,1.1,0.3,1.1,1.1v2.6H25v-2.6c0-0.5-0.2-0.6-0.6-0.6c-0.4,0-0.8,0.3-1,0.6
		v2.7h-0.5v-3.6H23.3z"/>
	<path d="M29,36.8h1.9c0.9,0,1.4,0.6,1.4,1.2c0,0.6-0.2,1-0.9,1.2l0,0c0.6,0.1,1,0.6,1,1.3c0,0.8-0.5,1.4-1.8,1.4H29V36.8z
		 M29.5,38.9h1c0.8,0,1.2-0.4,1.2-0.9c0-0.6-0.3-0.8-1-0.8h-1.2V38.9z M29.5,41.4h1.1c0.8,0,1.2-0.3,1.2-0.9c0-0.6-0.5-1-1.3-1h-1
		V41.4z"/>
	<path d="M35.6,41.8v-0.5h0c-0.3,0.3-0.7,0.6-1.1,0.6c-0.5,0-1.1-0.3-1.1-1.1v-2.6H34v2.6c0,0.5,0.2,0.6,0.6,0.6
		c0.4,0,0.8-0.3,1-0.6v-2.7h0.5v3.6H35.6z"/>
	<path d="M37.8,38.2v0.5h0c0.3-0.3,0.7-0.6,1.1-0.6c0.5,0,1.1,0.3,1.1,1.1v2.6h-0.5v-2.6c0-0.5-0.2-0.6-0.6-0.6
		c-0.4,0-0.8,0.3-1,0.6v2.7h-0.5v-3.6H37.8z"/>
	<path d="M43.9,36.8V41c0,0.3,0,0.5,0,0.8h-0.5l-0.1-0.4c-0.2,0.2-0.5,0.4-1,0.4c-0.6,0-1.5-0.4-1.5-1.9c0-1.4,0.8-1.9,1.5-1.9
		c0.3,0,0.7,0.2,1,0.4l0,0v-1.8H43.9z M43.4,39.1c-0.3-0.3-0.6-0.5-0.9-0.5c-0.6,0-1,0.4-1,1.5c0,0.9,0.4,1.4,1,1.4
		c0.3,0,0.6-0.1,0.9-0.5V39.1z"/>
	<path d="M49.4,41.8v-0.5h0c-0.3,0.3-0.7,0.6-1.1,0.6c-0.5,0-1.1-0.3-1.1-1.1v-2.6h0.5v2.6c0,0.5,0.2,0.6,0.6,0.6
		c0.4,0,0.8-0.3,1-0.6v-2.7h0.5v3.6H49.4z"/>
	<path d="M51.6,38.2v0.5h0c0.3-0.3,0.7-0.6,1.1-0.6c0.5,0,1.1,0.3,1.1,1.1v2.6h-0.5v-2.6c0-0.5-0.2-0.6-0.6-0.6
		c-0.4,0-0.8,0.3-1,0.6v2.7h-0.5v-3.6H51.6z"/>
	<path d="M57.7,36.8V41c0,0.3,0,0.5,0,0.8h-0.5l-0.1-0.4c-0.2,0.2-0.5,0.4-1,0.4c-0.6,0-1.5-0.4-1.5-1.9c0-1.4,0.8-1.9,1.5-1.9
		c0.3,0,0.7,0.2,1,0.4l0,0v-1.8H57.7z M57.2,39.1c-0.3-0.3-0.6-0.5-0.9-0.5c-0.6,0-1,0.4-1,1.5c0,0.9,0.4,1.4,1,1.4
		c0.3,0,0.6-0.1,0.9-0.5V39.1z"/>
	<path d="M61.8,41.8h-0.6v-5.1h0.6v2.6h0l2.1-2.6h0.7L63,38.7l1.8,3.2h-0.6l-1.5-2.7l-0.8,1V41.8z"/>
	<path d="M65.5,38.9c0.2-0.4,0.7-0.8,1.4-0.8c0.6,0,1.3,0.3,1.3,1.1V41c0,0.4,0,0.6,0.1,0.8h-0.5l-0.1-0.5c-0.3,0.3-0.7,0.6-1.2,0.6
		c-0.6,0-1-0.3-1-1c0-0.8,0.6-1.2,2.2-1.5v-0.2c0-0.5-0.3-0.7-0.7-0.7c-0.6,0-0.8,0.3-0.9,0.6L65.5,38.9z M67.7,39.9
		c-1.2,0.2-1.7,0.5-1.7,1c0,0.3,0.3,0.6,0.6,0.6c0.4,0,0.8-0.3,1.1-0.6V39.9z"/>
	<path d="M69.8,38.2v0.5h0c0.3-0.3,0.7-0.6,1.1-0.6c0.5,0,1.1,0.3,1.1,1.1v2.6h-0.5v-2.6c0-0.5-0.2-0.6-0.6-0.6
		c-0.4,0-0.8,0.3-1,0.6v2.7h-0.5v-3.6H69.8z"/>
	<path d="M73.3,38.2V37h0.5v1.2h0.8v0.4h-0.8v2.6c0,0.2,0.1,0.3,0.4,0.3c0.2,0,0.3,0,0.4,0v0.4c-0.1,0-0.3,0.1-0.6,0.1
		c-0.5,0-0.8-0.1-0.8-0.6v-2.7h-0.6v-0.4H73.3z"/>
	<path d="M76.6,41.9c-1,0-1.5-0.8-1.5-1.9c0-1,0.5-1.9,1.5-1.9s1.5,0.8,1.5,1.9C78.1,41.1,77.6,41.9,76.6,41.9z M76.6,38.5
		c-0.6,0-1,0.5-1,1.5s0.4,1.5,1,1.5s1-0.5,1-1.5S77.2,38.5,76.6,38.5z"/>
	<path d="M79.5,38.2v0.5h0c0.3-0.3,0.7-0.6,1.1-0.6c0.5,0,1.1,0.3,1.1,1.1v2.6h-0.5v-2.6c0-0.5-0.2-0.6-0.6-0.6
		c-0.4,0-0.8,0.3-1,0.6v2.7H79v-3.6H79.5z"/>
	<path d="M85.6,41c-0.2,0.4-0.6,0.8-1.4,0.8c-0.8,0-1.6-0.6-1.6-1.9c0-1.2,0.6-1.9,1.5-1.9c0.8,0,1.4,0.5,1.4,1.7v0.3h-2.4
		c0,0.8,0.5,1.4,1.1,1.4c0.4,0,0.8-0.2,1-0.6L85.6,41z M85,39.7c0-0.7-0.3-1.1-0.9-1.1c-0.6,0-0.9,0.4-1,1.1H85z"/>
	<path d="M87,38.2v0.5h0c0.3-0.3,0.7-0.6,1.1-0.6c0.5,0,1.1,0.3,1.1,1.1v2.6h-0.5v-2.6c0-0.5-0.2-0.6-0.6-0.6c-0.4,0-0.8,0.3-1,0.6
		v2.7h-0.5v-3.6H87z"/>
</g>
</svg>
